HIERARCHY
ROOT Hips
{
	OFFSET 0.000000 0.000000 0.000000
	CHANNELS 6 Xposition Yposition Zposition Zrotation Yrotation Xrotation 
	JOINT LHipJoint
	{
		OFFSET 0.000000 0.000000 0.000000
		CHANNELS 3 Zrotation Yrotation Xrotation
		JOINT LeftUpLeg
		{
			OFFSET 1.363060 -1.794630 0.839290
			CHANNELS 3 Zrotation Yrotation Xrotation
			JOINT LeftLeg
			{
				OFFSET 2.448110 -6.726130 0.000000
				CHANNELS 3 Zrotation Yrotation Xrotation
				JOINT LeftFoot
				{
					OFFSET 2.562200 -7.039590 0.000000
					CHANNELS 3 Zrotation Yrotation Xrotation
					JOINT LeftToeBase
					{
						OFFSET 0.157640 -0.433110 2.322550
						CHANNELS 3 Zrotation Yrotation Xrotation
						End Site
						{
							OFFSET 0.000000 0.000000 0.000000
						}
					}
				}
			}
		}
	}
	JOINT RHipJoint
	{
		OFFSET 0.000000 0.000000 0.000000
		CHANNELS 3 Zrotation Yrotation Xrotation
		JOINT RightUpLeg
		{
			OFFSET -1.305520 -1.794630 0.839290
			CHANNELS 3 Zrotation Yrotation Xrotation
			JOINT RightLeg
			{
				OFFSET -2.542530 -6.985550 0.000000
				CHANNELS 3 Zrotation Yrotation Xrotation
				JOINT RightFoot
				{
					OFFSET -2.568260 -7.056230 0.000000
					CHANNELS 3 Zrotation Yrotation Xrotation
					JOINT RightToeBase
					{
						OFFSET -0.164730 -0.452590 2.363150
						CHANNELS 3 Zrotation Yrotation Xrotation
						End Site
						{
							OFFSET 0.000000 0.000000 0.000000
						}
					}
				}
			}
		}
	}
	JOINT LowerBack
	{
		OFFSET 0.000000 0.000000 0.000000
		CHANNELS 3 Zrotation Yrotation Xrotation
		JOINT Spine
		{
			OFFSET 0.028270 2.035590 -0.193380
			CHANNELS 3 Zrotation Yrotation Xrotation
			JOINT Spine1
			{
				OFFSET 0.056720 2.048850 -0.042750
				CHANNELS 3 Zrotation Yrotation Xrotation
				JOINT Neck
				{
					OFFSET 0.000000 0.000000 0.000000
					CHANNELS 3 Zrotation Yrotation Xrotation
					JOINT Neck1
					{
						OFFSET -0.054170 1.746240 0.172020
						CHANNELS 3 Zrotation Yrotation Xrotation
						JOINT Head
						{
							OFFSET 0.104070 1.761360 -0.123970
							CHANNELS 3 Zrotation Yrotation Xrotation
							End Site
							{
								OFFSET 0.000000 0.000000 0.000000
							}
						}
					}
				}
				JOINT LeftShoulder
				{
					OFFSET 0.000000 0.000000 0.000000
					CHANNELS 3 Zrotation Yrotation Xrotation
					JOINT LeftArm
					{
						OFFSET 3.362410 1.200890 -0.311210
						CHANNELS 3 Zrotation Yrotation Xrotation
						JOINT LeftForeArm
						{
							OFFSET 4.983000 -0.000000 -0.000000
							CHANNELS 3 Zrotation Yrotation Xrotation
							JOINT LeftHand
							{
								OFFSET 3.483560 -0.000000 -0.000000
								CHANNELS 3 Zrotation Yrotation Xrotation
								JOINT LeftFingerBase
								{
									OFFSET 0.000000 0.000000 0.000000
									CHANNELS 3 Zrotation Yrotation Xrotation
									JOINT LeftHandIndex1
									{
										OFFSET 0.715260 -0.000000 -0.000000
										CHANNELS 3 Zrotation Yrotation Xrotation
										End Site
										{
											OFFSET 0.000000 0.000000 0.000000
										}
									}
								}
								JOINT LThumb
								{
									OFFSET 0.000000 0.000000 0.000000
									CHANNELS 3 Zrotation Yrotation Xrotation
									End Site
									{
										OFFSET 0.000000 0.000000 0.000000
									}
								}
							}
						}
					}
				}
				JOINT RightShoulder
				{
					OFFSET 0.000000 0.000000 0.000000
					CHANNELS 3 Zrotation Yrotation Xrotation
					JOINT RightArm
					{
						OFFSET -3.136600 1.374050 -0.404650
						CHANNELS 3 Zrotation Yrotation Xrotation
						JOINT RightForeArm
						{
							OFFSET -5.241900 -0.000000 -0.000000
							CHANNELS 3 Zrotation Yrotation Xrotation
							JOINT RightHand
							{
								OFFSET -3.444170 -0.000000 -0.000000
								CHANNELS 3 Zrotation Yrotation Xrotation
								JOINT RightFingerBase
								{
									OFFSET 0.000000 0.000000 0.000000
									CHANNELS 3 Zrotation Yrotation Xrotation
									JOINT RightHandIndex1
									{
										OFFSET -0.622530 -0.000000 -0.000000
										CHANNELS 3 Zrotation Yrotation Xrotation
										End Site
										{
											OFFSET 0.000000 0.000000 0.000000
										}
									}
								}
								JOINT RThumb
								{
									OFFSET 0.000000 0.000000 0.000000
									CHANNELS 3 Zrotation Yrotation Xrotation
									End Site
									{
										OFFSET 0.000000 0.000000 0.000000
									}
								}
							}
						}
					}
				}
			}
		}
	}
}
MOTION
Frames: 12
Frame Time: 0.008333
1.102744 17.859968 -17.077960 -1.055128 -1.591471 5.752311 3.338380 2.961126 1.096423 -21.980266 -7.579629 -8.785164 0.752394 5.880224 19.200937 -0.430938 3.442883 -3.995017 0.001600 0.255100 0.701000 -5.565191 -3.550753 0.402951 27.945078 10.842139 -6.551759 -1.786133 -6.003839 19.805661 1.011140 -7.851168 -6.256567 -0.044100 -1.355800 3.728300 0.414249 0.097713 4.701167 1.257722 -0.197396 -0.401517 2.858488 0.283652 -2.847290 -6.940658 -3.279994 -14.961994 3.766450 -3.332566 9.618275 2.674700 -1.773200 7.893100 -7.171819 3.289897 -2.034937 -83.715464 -0.832623 23.231110 11.691506 -21.081338 -2.377821 -0.958622 -2.565686 8.391579 18.856480 21.679641 8.311900 -7.125000 0.000000 0.000000 -10.720400 55.371400 -2.752500 5.543862 -2.584151 -2.079370 81.678399 -1.715298 16.265469 -16.170972 24.023611 -4.282863 0.637535 -0.540729 5.771744 -10.828978 13.640498 -2.839900 7.125000 0.000000 0.000000 10.862800 -15.779700 7.639800 
1.103846 17.853958 -17.078461 -1.049710 -1.583373 5.713126 3.342902 2.958882 1.099826 -22.005862 -7.599757 -8.909252 0.785514 5.968074 19.448708 -0.428454 3.449505 -4.078772 0.000500 0.141600 0.389000 -5.562109 -3.554111 0.388180 27.962352 10.659778 -6.447606 -1.764488 -5.937584 19.619019 1.034925 -7.939059 -6.011038 -0.009400 -0.625200 1.718200 0.418624 0.115810 4.720875 1.245820 -0.172146 -0.391863 2.825577 0.295854 -2.839877 -6.966229 -3.339561 -14.952207 3.821109 -3.409842 9.603323 2.690700 -1.805600 7.894600 -7.175156 3.292101 -2.033391 -83.739728 -0.839363 23.410663 11.668292 -21.034691 -2.353080 -0.972934 -2.597604 7.775658 19.309106 21.910919 8.619900 -7.125000 0.000000 0.000000 -10.326700 55.732100 -2.740600 5.536907 -2.577913 -2.078395 81.718759 -1.663788 16.247494 -16.259483 24.146491 -4.334723 0.618042 -0.503990 5.650737 -10.581501 13.245471 -2.689200 7.125000 0.000000 0.000000 11.056700 -16.223300 7.673200 
1.103245 17.852655 -17.076558 -1.053887 -1.468587 5.729083 3.342474 2.958906 1.103278 -21.994256 -7.640506 -8.950003 0.786537 5.972873 19.459010 -0.416841 3.383783 -4.049856 -0.000000 -0.027300 -0.075000 -5.560585 -3.558317 0.385681 27.986043 10.533463 -6.482536 -1.764342 -5.936376 19.615943 1.048597 -8.011781 -5.968226 -0.002900 -0.346300 0.951500 0.417887 0.089099 4.726362 1.253355 -0.208312 -0.417508 2.835765 0.280445 -2.889025 -6.990831 -3.380990 -14.977294 3.819077 -3.460622 9.696421 2.686300 -1.832800 7.938400 -7.174630 3.290374 -2.032901 -83.802273 -0.823824 23.229408 11.663345 -21.020525 -2.349587 -0.966866 -2.598877 8.018751 19.143406 22.009121 8.567800 -7.125000 0.000000 0.000000 -10.564100 55.797600 -2.821400 5.530296 -2.574038 -2.083148 81.693451 -1.646029 16.377824 -16.344596 24.265632 -4.386820 0.595641 -0.463157 5.514987 -10.295867 12.797338 -2.522000 7.125000 0.000000 0.000000 11.282900 -16.724600 7.711000 
1.104347 17.853056 -17.072350 -0.968249 -1.360475 5.721802 3.344359 2.958103 1.107281 -22.088465 -7.778277 -8.866896 0.795841 5.994610 19.529310 -0.404326 3.332545 -4.154490 -0.000000 0.007300 0.020200 -5.555409 -3.563128 0.375941 27.888258 10.344160 -6.502184 -1.762951 -5.927857 19.594033 1.038561 -7.943637 -5.916705 -0.001800 -0.271000 0.744600 0.346408 0.067136 4.701742 1.245473 -0.242967 -0.416193 2.849552 0.264055 -2.864844 -6.968106 -3.412176 -15.052410 3.761907 -3.501367 9.736131 2.654000 -1.855900 7.967100 -7.173742 3.286687 -2.027622 -83.876446 -0.871151 22.974351 11.663198 -21.023481 -2.368911 -0.988292 -2.527841 8.259773 19.120222 21.061085 8.240100 -7.125000 0.000000 0.000000 -10.119400 54.768300 -2.446800 5.527168 -2.574994 -2.086496 81.671613 -1.595272 16.512442 -16.400823 24.344941 -4.420327 0.586729 -0.448238 5.451561 -10.180269 12.647136 -2.462000 7.125000 0.000000 0.000000 11.374200 -16.894200 7.733000 
1.106651 17.852355 -17.074053 -0.988772 -1.276072 5.694635 3.345153 2.959483 1.112039 -22.075108 -7.885880 -8.829018 0.803424 6.013283 19.584663 -0.399612 3.307935 -4.155872 0.001500 0.253100 0.695300 -5.553885 -3.565679 0.372298 27.901788 10.224087 -6.524453 -1.765756 -5.932989 19.612990 1.034632 -7.910434 -5.861531 -0.001100 -0.212500 0.583700 0.391930 0.045419 4.782238 1.247260 -0.266401 -0.435409 2.826312 0.253967 -2.950128 -6.972982 -3.413372 -14.948861 3.805640 -3.504227 9.554098 2.673100 -1.851300 7.886800 -7.173569 3.288025 -2.026856 -83.912315 -0.883179 22.849480 11.683844 -21.055778 -2.389046 -0.985879 -2.496326 8.212962 19.034524 20.606450 8.046600 -7.125000 0.000000 0.000000 -9.998700 54.256900 -2.292100 5.519696 -2.566223 -2.086747 81.681574 -1.614309 16.577978 -16.455531 24.412554 -4.447963 0.592568 -0.411590 5.361168 -10.272458 12.239058 -2.400700 7.125000 0.000000 0.000000 11.323800 -17.330900 7.586900 
1.105449 17.850852 -17.078861 -0.990371 -1.243949 5.704179 3.346498 2.958114 1.112067 -22.068143 -7.907479 -8.905944 0.808930 6.030530 19.627550 -0.391251 3.258092 -4.111244 0.003500 0.382900 1.052100 -5.554524 -3.564122 0.375705 27.895590 10.243351 -6.582151 -1.772505 -5.952938 19.668626 1.037023 -7.935882 -5.911482 -0.002000 -0.285800 0.785200 0.371897 0.065331 4.842816 1.246703 -0.238736 -0.449848 2.845807 0.268955 -3.017036 -7.086458 -3.433187 -14.875537 3.935459 -3.509507 9.438347 2.742200 -1.846500 7.842000 -7.173892 3.291727 -2.033472 -83.923038 -0.866350 23.057461 11.745588 -21.150801 -2.408426 -0.919272 -2.564548 7.962291 18.559622 21.540967 8.121500 -7.125000 0.000000 0.000000 -10.978600 55.156700 -2.762400 5.516549 -2.550438 -2.080793 81.669616 -1.528116 16.534054 -16.435377 24.374873 -4.432956 0.600577 -0.398127 5.334311 -10.387395 12.068168 -2.393000 7.125000 0.000000 0.000000 11.246200 -17.508300 7.488200 
1.103345 17.847948 -17.079963 -1.016716 -1.129322 5.708123 3.349658 2.955733 1.109812 -22.019389 -7.913325 -8.964708 0.818401 6.054530 19.694656 -0.368166 3.125067 -4.048497 0.004800 0.445700 1.224700 -5.553090 -3.563418 0.372405 27.932702 10.229270 -6.552766 -1.773315 -5.955251 19.677851 1.043699 -7.980534 -5.950988 -0.004500 -0.431500 1.185600 0.416587 0.062837 4.829375 1.229183 -0.239660 -0.416330 2.791993 0.265211 -2.932774 -7.064139 -3.479173 -15.067260 3.957824 -3.571449 9.526252 2.737000 -1.870600 7.914800 -7.171082 3.279998 -2.034868 -83.877833 -1.001281 22.856450 11.848654 -21.314709 -2.456885 -0.773312 -2.629379 9.165934 16.647611 22.957159 7.575500 -7.125000 0.000000 0.000000 -13.886300 56.198200 -3.866400 5.526712 -2.541018 -2.070259 81.733807 -1.225928 16.328131 -16.349307 24.245019 -4.381600 0.602673 -0.420009 5.492158 -10.441906 12.261019 -2.446800 7.125000 0.000000 0.000000 11.198300 -17.293100 7.508900 
1.101342 17.846645 -17.077058 -1.046068 -0.914084 5.716605 3.351583 2.954148 1.110774 -21.957694 -7.966621 -9.010681 0.823887 6.068662 19.733141 -0.338192 2.950609 -3.968002 0.005300 0.468500 1.287400 -5.551090 -3.565253 0.368113 27.995033 10.145665 -6.532455 -1.773315 -5.955025 19.680603 1.061392 -8.088824 -5.990050 -0.002500 -0.324800 0.892500 0.490198 0.020843 4.841705 1.219882 -0.291239 -0.404748 2.721015 0.238094 -2.902024 -7.006362 -3.521756 -15.284157 3.930298 -3.632517 9.605167 2.706400 -1.896900 7.988200 -7.185923 3.273226 -2.026749 -83.862962 -1.098458 23.423389 11.650007 -20.993432 -2.378824 -1.008958 -2.470802 7.321042 19.522447 19.935851 8.054700 -7.125000 0.000000 0.000000 -9.152700 53.642600 -1.957800 5.536889 -2.541563 -2.071802 81.786511 -1.095990 16.232763 -16.327532 24.210111 -4.364990 0.613767 -0.452577 5.569186 -10.586086 12.636879 -2.561100 7.125000 0.000000 0.000000 11.077200 -16.879500 7.526700 
1.098036 17.846946 -17.071950 -1.070101 -0.749706 5.702161 3.349596 2.954138 1.112714 -21.912150 -7.957390 -9.064806 0.827571 6.079732 19.761797 -0.318290 2.841958 -3.957474 0.002400 0.316500 0.869600 -5.553859 -3.565064 0.366399 28.062449 10.136520 -6.494468 -1.770991 -5.948419 19.662651 1.101457 -8.323851 -6.005525 -0.001000 -0.206300 0.566900 0.460024 -0.021216 4.901288 1.252284 -0.347078 -0.417748 2.798875 0.211328 -2.950905 -7.102685 -3.521100 -15.361166 3.980379 -3.604107 9.623285 2.742700 -1.884000 8.014400 -7.186119 3.277066 -2.023705 -83.932298 -1.124798 23.612810 11.574450 -20.866131 -2.348678 -1.096807 -2.399995 6.707753 20.478893 18.663871 8.042300 -7.125000 0.000000 0.000000 -7.578300 52.457700 -1.397600 5.527046 -2.539074 -2.081935 81.733952 -1.217192 16.381756 -16.456647 24.399858 -4.437303 0.612458 -0.464445 5.369866 -10.516170 12.883530 -2.594400 7.125000 0.000000 0.000000 11.119100 -16.623800 7.619500 
1.096934 17.847447 -17.068043 -1.021516 -0.595830 5.693671 3.347761 2.953286 1.114461 -21.954550 -7.965615 -9.098427 0.829724 6.086437 19.779678 -0.304144 2.769373 -3.978322 0.000100 0.070300 0.193200 -5.554331 -3.565718 0.361736 28.029546 10.086556 -6.474306 -1.767216 -5.936163 19.627704 1.122283 -8.444999 -6.012205 -0.001500 -0.247300 0.679500 0.368039 -0.070406 4.899964 1.282898 -0.418077 -0.423842 2.909718 0.176939 -2.953581 -7.214745 -3.527910 -15.350853 3.998818 -3.582950 9.598482 2.770500 -1.878600 8.005600 -7.178532 3.280525 -2.021645 -84.046895 -1.160691 23.424158 11.633360 -20.957871 -2.376728 -1.019227 -2.446400 7.127430 19.608225 19.516978 7.950700 -7.125000 0.000000 0.000000 -8.875400 53.206000 -1.802700 5.513930 -2.535638 -2.087853 81.637758 -1.291678 16.540766 -16.585883 24.591053 -4.514637 0.595087 -0.447756 5.071485 -10.233719 12.787651 -2.502500 7.125000 0.000000 0.000000 11.329400 -16.748400 7.738000 
1.100941 17.850552 -17.065840 -0.989787 -0.425619 5.711139 3.349526 2.952608 1.117282 -21.998567 -8.044880 -9.110445 0.832345 6.095156 19.803675 -0.290440 2.701933 -4.015814 0.000200 -0.088700 -0.243800 -5.549207 -3.568695 0.355295 27.974044 9.938376 -6.499749 -1.763484 -5.924869 19.596773 1.119332 -8.439879 -6.093477 -0.000600 -0.151500 0.416300 0.417185 -0.116538 4.826478 1.272231 -0.478153 -0.425770 2.864417 0.145822 -2.917058 -7.240046 -3.577753 -15.239014 3.996078 -3.646972 9.512633 2.769500 -1.909900 7.958000 -7.163826 3.277832 -2.029940 -84.068875 -1.206040 22.955862 11.899031 -21.377927 -2.467894 -0.771157 -2.659454 9.478019 16.558834 23.477081 7.672800 -7.125000 0.000000 0.000000 -14.297600 56.719500 -4.165900 5.502211 -2.527298 -2.079214 81.601402 -1.234831 16.599000 -16.582714 24.593006 -4.517763 0.580295 -0.445025 4.848207 -9.993396 12.782163 -2.441400 7.125000 0.000000 0.000000 11.505100 -16.767600 7.858200 
1.103545 17.850953 -17.064037 -0.960427 -0.411990 5.734642 3.351795 2.952684 1.120276 -22.049319 -8.071552 -9.141867 0.835705 6.105023 19.830428 -0.292993 2.719698 -4.036328 0.000700 -0.165000 -0.453400 -5.545745 -3.569712 0.357674 27.912815 9.894757 -6.551385 -1.763922 -5.926090 19.599256 1.109707 -8.396170 -6.156160 -0.000200 -0.082100 0.225500 0.443422 -0.118219 4.829003 1.248686 -0.478529 -0.468642 2.801575 0.148523 -3.013966 -7.326134 -3.617033 -15.058318 4.118971 -3.696467 9.499909 2.827500 -1.928900 7.930700 -7.173185 3.291531 -2.037385 -84.081236 -1.009244 23.387145 11.862463 -21.327280 -2.457804 -0.892310 -2.596745 7.765637 18.440038 21.954545 8.193600 -7.125000 0.000000 0.000000 -11.326400 55.572800 -2.966600 5.494335 -2.521497 -2.076479 81.589345 -1.269755 16.739366 -16.546461 24.542672 -4.498959 0.581490 -0.454988 4.733610 -9.972688 12.906214 -2.461300 7.125000 0.000000 0.000000 11.514300 -16.634500 7.898900 
